<svg width="2457" height="2370" viewBox="0 0 2457 2370" fill="none" xmlns="http://www.w3.org/2000/svg">
<path opacity="0.15" d="M1588.05 617.845C1599.87 648.586 1600.61 656.016 1610.21 682.967C1614.76 695.802 1622.88 717.442 1637.39 758.101C1643.49 775.246 1648.31 789.344 1642.43 804.185C1641.48 806.581 1636.76 818.506 1625.31 824.227C1608.6 832.585 1589.69 821.626 1567.93 813.212C1560.05 810.166 1535.14 805.504 1485.37 796.179C1448.08 789.195 1418.9 789.195 1360.52 789.158C1303.43 789.139 1246.44 782.285 1189.35 783.14C1181.92 783.251 1163.07 783.623 1150.09 771.122C1141.39 762.745 1135.59 748.814 1138.01 736.053C1143.37 707.931 1186.63 696.787 1201.45 692.979C1227.34 686.311 1236.4 690.731 1275.95 689.97C1313.4 689.264 1347.77 688.595 1384.7 674.943C1423.97 660.399 1453.94 635.658 1463.23 627.857C1484.89 609.691 1509.08 594.738 1531.69 577.761C1539.42 571.947 1547.02 566.208 1555.85 567.749C1566.54 569.607 1573.99 581.253 1588.07 617.845H1588.05Z" stroke="#007C79" stroke-width="2" stroke-miterlimit="10"/>
<path opacity="0.15" d="M1533.69 473.577C1500.16 486.95 1479.46 510.466 1473.28 517.654C1452.95 541.262 1455.56 552.407 1434.02 574.752C1415.97 593.475 1397.71 602.707 1381.67 610.824C1347.23 628.228 1317.4 633.466 1291.06 637.868C1243.08 645.893 1240.8 638.667 1196.41 646.877C1160.34 653.564 1136.26 658.3 1111.84 676.931C1100.47 685.605 1073.78 705.963 1068.55 741.05C1067.15 750.449 1064.87 777.103 1081.64 799.151C1089.25 809.181 1101.63 819.323 1140.03 829.205C1182.8 840.201 1203.35 836.839 1251.8 841.222C1296.02 845.235 1287.81 848.838 1352.48 857.252C1434.32 867.895 1436.59 860.707 1465.23 872.279C1506.23 888.848 1541.16 919.588 1550.81 928.374C1569.74 945.63 1570.32 950.441 1587.06 962.44C1605.71 975.814 1636.46 997.862 1670.62 990.487C1698.12 984.562 1714.06 962.551 1719.96 954.416C1748.06 915.669 1740.05 868.713 1737.08 851.234C1735.66 842.913 1734.97 842.448 1706.87 772.088C1684.92 717.126 1680.31 704.774 1675.17 685.939C1669.39 664.671 1664.38 646.245 1662.57 620.817C1659.64 580.027 1668.62 572.857 1663.58 539.665C1659.98 515.926 1656.26 491.408 1637.41 475.545C1602.42 446.123 1543.06 469.806 1533.71 473.539L1533.69 473.577Z" stroke="#007C79" stroke-width="2" stroke-miterlimit="10"/>
<path opacity="0.15" d="M1670.1 1070.82C1643.16 1065.16 1621.76 1071.31 1602.8 1076.75C1585.74 1081.65 1571.4 1085.98 1567.87 1097.09C1564.08 1109.03 1574.98 1121.96 1584.06 1132.68C1605.32 1157.84 1632.26 1167.91 1644.54 1171.66C1664.42 1177.74 1683.3 1183.5 1704.17 1175.06C1722.8 1167.54 1743.86 1148.39 1743.35 1126.75C1742.6 1094.28 1693.73 1075.78 1670.1 1070.82Z" stroke="#007C79" stroke-width="2" stroke-miterlimit="10"/>
<path opacity="0.15" d="M1591.9 1319.57C1577.82 1303.54 1558.72 1300.66 1550.06 1299.35C1536.96 1297.36 1521.83 1295.07 1509.33 1304.84C1494.22 1316.66 1494.71 1336.9 1494.82 1339.87C1494.91 1342.12 1495.81 1358.41 1508.64 1370.78C1528.5 1389.95 1558.7 1382.09 1565.24 1380.4C1571.86 1378.68 1600.86 1371.15 1604.59 1350.87C1607.15 1336.96 1596.41 1324.74 1591.9 1319.59V1319.57Z" stroke="#007C79" stroke-width="2" stroke-miterlimit="10"/>
<path opacity="0.15" d="M1288.59 1541.07C1293.58 1544.05 1300.63 1548.89 1333.71 1591.88C1357.33 1622.56 1356.56 1623.79 1378.84 1653.3C1402.47 1684.64 1414.57 1698.2 1427.52 1725.37C1440.93 1753.49 1439.81 1763.86 1435.83 1770.27C1433.57 1773.92 1427.3 1781.28 1402.58 1783.27C1370.04 1785.89 1348.57 1775.74 1317.1 1765.55C1298.04 1759.36 1269.38 1750.09 1232.79 1745.47C1192.69 1740.4 1161.07 1736.4 1136.63 1743.11C1121.7 1747.2 1115.2 1746.62 1102.21 1745.47C1089.89 1744.37 1086.62 1741.9 1085.02 1740.27C1076.22 1731.35 1082.4 1712.61 1084.53 1706.15C1090.95 1686.68 1099.61 1682.83 1115.87 1659.84C1125.82 1645.8 1121.61 1648.6 1147.22 1604.77C1164.08 1575.92 1168.63 1570.03 1171.71 1566.26C1184.01 1551.22 1193.89 1539.14 1209.93 1532.14C1245.99 1516.41 1284.8 1538.81 1288.59 1541.09V1541.07Z" stroke="#007C79" stroke-width="2" stroke-miterlimit="10"/>
<path opacity="0.15" d="M1076.9 1239.42C1059.16 1245.59 1044.34 1248.88 1023.93 1261.62C1018.52 1265 1006.72 1273.99 983.144 1291.97C974.108 1298.86 960.947 1308.97 941.513 1317.81C926.933 1324.44 920.717 1324.96 915.546 1322.73C905.073 1318.22 902.329 1303.95 901.526 1299.77C897.867 1280.75 905.876 1262.66 919.242 1242.36C937.761 1214.27 956.971 1196.61 976.703 1178.85C1039.75 1122.13 1034.48 1130.78 1058.04 1107.27C1081.04 1084.29 1105.64 1062.85 1127.49 1038.78C1133.53 1032.11 1143.07 1021.36 1159.39 1013.87C1168.05 1009.9 1187.45 1001 1210.07 1008.26C1227.96 1014.02 1242.84 1028.27 1248.87 1045.62C1256.17 1066.66 1248.08 1085.53 1239.48 1104.76C1234.59 1115.72 1217.24 1151.68 1172.53 1186.93C1129.76 1220.64 1082.59 1237.44 1076.88 1239.42H1076.9Z" stroke="#007C79" stroke-width="2" stroke-miterlimit="10"/>
<path opacity="0.15" d="M1191.05 1237.73C1171.45 1253.34 1159.69 1260.52 1153.66 1264.05C1126.53 1279.9 1118.36 1278.32 1093.45 1292.19C1082.61 1298.23 1060.56 1310.77 1039.63 1333.95C1021.34 1354.21 1011.91 1373.74 1004.97 1388.41C1000.08 1398.74 993.803 1416.48 981.258 1451.93C970.057 1483.6 968.974 1487.95 963.019 1495.49C960.816 1498.3 942.988 1520.21 912.858 1525.43C894.525 1528.61 879.404 1523.06 849.927 1511.82C814.831 1498.45 792.018 1484.5 763.045 1466.57C723.431 1442.07 714.806 1432.13 709.225 1420.19C706.592 1414.54 699.106 1397.86 703.923 1378.71C706.368 1369.02 711.838 1359.14 730.824 1342.14C753.039 1322.25 769.934 1313.94 783.505 1305.2C808.222 1289.26 807.755 1281.01 860.661 1219.38C882.988 1193.4 897.55 1176.44 918.365 1155.5C966.585 1107.04 975.153 1110.89 1007.84 1072.27C1029.53 1046.66 1043.26 1030.44 1057.13 1004.53C1067.08 985.937 1069.32 976.891 1081.11 964.52C1100.98 943.717 1125.51 937.011 1138.82 933.557C1171.79 924.975 1198.93 930.12 1212.74 932.906C1231.82 936.751 1282.43 946.949 1313.91 990.97C1321.06 1000.96 1338.03 1024.7 1335.95 1055.48C1335.15 1067.48 1331.46 1080.52 1303.53 1118.71C1256.58 1182.94 1212.48 1220.66 1191.05 1237.71V1237.73Z" stroke="#007C79" stroke-width="2" stroke-miterlimit="10"/>
<path opacity="0.15" d="M1076.9 1379.98C1070.1 1390.3 1065.84 1402.01 1057.33 1425.41C1044.8 1459.81 1046.13 1468.69 1036.95 1492.76C1030.73 1509.01 1021.62 1532.92 1001.06 1555.25C969.105 1589.98 928.95 1599.81 914.612 1603.13C896.504 1607.31 865.422 1614.5 832.248 1602.31C815.279 1596.09 814.887 1591.1 769.448 1556.88C744.732 1538.27 728.098 1525.75 705.024 1511.45C671.477 1490.66 662.442 1489.75 638.155 1470.88C614.259 1452.31 602.218 1442.68 598.186 1426.25C592.175 1401.73 606.811 1377.84 616.948 1361.33C625.031 1348.14 634.328 1337.53 646.313 1326.43C677.489 1297.52 700.208 1289.93 735.211 1268.81C773.499 1245.72 799.261 1222.89 814.327 1209.57C839.883 1186.93 839.062 1183.33 892.621 1125.19C947.207 1065.94 956.971 1060.03 970.094 1033.49C981.239 1010.99 997.369 978.396 986.41 944.218C978.122 918.344 958.128 903.522 934.214 885.801C911.775 869.159 905.073 870.18 852.653 841.984C802.435 814.977 792.952 805.634 788.229 800.6C779.268 791.053 757.986 768.373 754.794 735.682C752.572 712.854 761.16 694.465 778.446 658.598C803.387 606.868 813.692 608.075 823.306 576.647C827.114 564.165 839.473 523.765 823.306 484.145C815.111 464.066 797.992 447.777 763.773 415.178C735.117 387.874 720.201 379.014 709.953 354.328C706.443 345.858 699.872 329.512 702.616 309.693C706.574 280.959 727.613 263.071 750.743 243.958C766.088 231.29 801.632 202.648 857.581 192.024C894.507 185.002 922.397 189.237 951.37 193.64C993.411 200.029 1025.15 204.84 1044.34 230.157C1055.87 245.37 1061.4 266.043 1063.1 272.359C1068.64 293.125 1065.49 299.737 1068.81 314.56C1074.15 338.428 1089.4 352.749 1115.3 377.045C1126.57 387.632 1150.91 408.826 1187.88 427.363C1220.98 443.969 1249.74 451.194 1258.84 453.33C1285.18 459.553 1299.76 459.367 1338.75 469.564C1368.46 477.329 1378.69 482.307 1383.61 492.281C1390.82 506.862 1382.94 524.434 1379.54 532.049C1375.74 540.556 1367.3 555.007 1346.11 568.567C1325.03 582.052 1307.86 584.095 1258.85 591.283C1206.9 598.899 1180.65 602.8 1166.69 606.7C1144.4 612.941 1118.04 620.557 1089.22 639.967C1072.41 651.279 1044.9 669.798 1026.42 705.703C1007.43 742.573 1008.94 776.435 1010.1 802.272C1011.3 828.982 1016.43 838.176 1018.26 841.223C1032.26 864.496 1060.19 871.313 1081.06 876.124C1111.88 883.201 1127.39 879.728 1161.8 880.173C1178.17 880.396 1223.29 881.826 1271.08 893.974C1283.46 897.113 1328.23 909.187 1378.74 940.225C1378.74 940.225 1425.92 969.238 1457.04 1014.06C1463.51 1023.4 1471.34 1036.37 1468.46 1050.58C1467.23 1056.65 1464.02 1062.97 1450.52 1076.54C1430.45 1096.72 1414.64 1106.56 1414.64 1106.56C1386.64 1124 1347.29 1153.57 1320.85 1178.78C1291.19 1207.05 1295.24 1213.21 1253.16 1254.25C1234.16 1272.76 1220.68 1283.85 1205.05 1294.01C1183.64 1307.91 1180.34 1305.66 1152.86 1320.8C1120.11 1338.83 1095.02 1352.64 1077.01 1380.03L1076.9 1379.98Z" stroke="#007C79" stroke-width="2" stroke-miterlimit="10"/>
<path opacity="0.15" d="M878.769 775.283C853.381 768.15 841.937 747.161 839.678 742.722C829.933 723.664 832.995 705.22 836.038 688.447C840.836 661.978 849.218 658.096 859.672 628.73C870.611 598.026 872.105 572.393 873.318 551.831C874.849 525.492 876.1 504.225 868.763 476.734C863.237 456.024 855.639 427.475 831.483 405.259C816.866 391.811 805.105 388.877 788.751 368.166C772.622 347.734 773.742 337.518 774.209 334.695C775.179 328.714 778.876 320.764 801.483 306.647C835.291 285.546 867.046 278.377 879.684 275.888C903.486 271.207 918.906 268.161 939.702 272.266C952.229 274.736 980.959 280.42 993.355 302.115C999.067 312.108 996.342 316.826 1004.26 331.964C1010.32 343.573 1017.08 350.687 1026.08 360.012C1057.29 392.369 1072.92 408.566 1074.26 409.773C1098.87 431.802 1122.84 448.742 1127.92 452.29C1134.92 457.194 1147.74 467.93 1173.37 489.383C1181.46 496.145 1188.79 502.479 1189.74 512.007C1190.7 521.573 1184.74 530.006 1177.93 537.343C1158.79 557.942 1137.73 564.685 1116.1 574.436C1084.55 588.664 1063.1 604.211 1044.26 617.864C1017.6 637.181 1002.5 648.122 986.97 668.535C967.574 694.019 954.245 724.63 954.245 724.63C944.295 747.458 944.892 754.609 935.147 763.525C920.922 776.546 898.352 780.781 878.769 775.283Z" stroke="#007C79" stroke-width="2" stroke-miterlimit="10"/>
<path opacity="0.15" d="M964.345 576.851C952.229 573.192 944.668 565.298 942.951 563.459C935.091 554.952 932.758 545.832 928.688 520.106C923.237 485.594 920.773 462.58 920.773 462.58C917.338 430.521 917.954 427.363 913.642 420.026C906.174 407.303 891.165 394.468 885.117 389.285C875.839 381.335 869.454 377.416 868.483 369.578C867.699 363.299 870.593 356.26 875.615 352.248C882.41 346.805 889.97 349.406 906.51 350.669C936.342 352.953 937.798 346.434 954.04 351.449C959.323 353.083 973.697 357.541 983.349 370.358C991.171 380.76 987.923 386.072 996.025 404.256C1002.28 418.28 1009.84 427.79 1015.03 434.199C1028.97 451.436 1034.39 450.358 1047.51 466.518C1058.08 479.539 1065.9 489.161 1066.52 501.977C1067.43 520.719 1052.4 534.854 1039.58 546.909C1030.47 555.49 997.182 586.77 964.326 576.851H964.345Z" stroke="#007C79" stroke-width="2" stroke-miterlimit="10"/>
<path opacity="0.15" d="M686.449 464.401C663.207 470.883 650.457 491.018 647.844 495.142C637.147 512.026 637.016 527.517 636.811 554.413C636.568 585.6 636.363 610.582 654.452 627.95C657.551 630.921 665.952 638.797 678.721 641.119C709.225 646.691 736.107 615.486 747.121 602.707C764.035 583.073 787.575 555.732 780.22 522.576C771.539 483.495 723.786 453.999 686.449 464.401Z" stroke="#007C79" stroke-width="2" stroke-miterlimit="10"/>
<path opacity="0.15" d="M666.885 832.882C691.583 842.263 686.132 841.947 739.579 864.162C778.166 880.192 787.015 882.848 812.273 894.457C851.85 912.66 871.899 922.096 884.967 938.442C889.373 943.958 907.164 966.842 907.556 998.066C907.78 1015.95 902.235 1031.87 865.31 1084.07C828.776 1135.72 810.518 1161.54 789.685 1178.87C773.798 1192.1 747.009 1206.58 693.431 1235.56C665.504 1250.66 648.497 1259.82 624.172 1270.74C571.994 1294.16 545.915 1305.88 522.524 1302.99C482.723 1298.06 450.315 1267.25 434.951 1238.92C421.715 1214.52 429.071 1206.58 414.061 1148.09C402.618 1103.49 397.185 1103.59 390.017 1073.13C384.173 1048.24 385.294 1037.52 388.411 940.745C391.323 850.825 391.305 830.635 409.245 814.735C423.955 801.696 442.213 799.114 466.948 795.603C474.154 794.582 498.591 791.517 555.118 801.974C611.571 812.432 653.276 827.719 666.922 832.901L666.885 832.882Z" stroke="#007C79" stroke-width="2" stroke-miterlimit="10"/>
<path opacity="0.15" d="M626.972 1216.39C659.007 1204.8 675.006 1198.99 684.377 1194.6C699.76 1187.4 715.348 1180.12 732.877 1167.19C744.47 1158.64 768.72 1138.94 789.106 1105.76C801.763 1085.14 816.007 1061.94 814.457 1031.17C813.879 1019.84 813.244 1007.19 804.545 997.156C791.029 981.609 768.235 984.061 728.472 985.082C663.786 986.773 631.453 987.608 612.71 980.699C574.029 966.396 568.989 942.918 531.13 940.113C522.449 939.463 499.338 937.754 482.63 952.187C477.291 956.793 465.791 968.922 463.887 1018C463.364 1031.35 463.252 1055.35 474.92 1117.82C487.521 1185.35 496.295 1203.57 511.304 1215.44C523.998 1225.47 538.858 1229.71 538.858 1229.71C543.189 1230.93 555.678 1234.07 578.547 1230.8C590.924 1229.04 599.325 1226.4 626.972 1216.39Z" stroke="#007C79" stroke-width="2" stroke-miterlimit="10"/>
<path opacity="0.15" d="M630.426 1128.92C640.358 1130.28 647.321 1131.23 655.983 1128.5C658.466 1127.72 677.358 1121.75 678.497 1109.53C679.654 1097.29 662.143 1088.13 658.578 1086.26C657.532 1085.72 634.402 1074.05 615.267 1085.83C612.262 1087.69 603.712 1092.94 601.416 1103.07C601.024 1104.83 599.399 1111.93 603.152 1118.15C607.781 1125.84 617.582 1127.18 630.445 1128.92H630.426Z" stroke="#007C79" stroke-width="2" stroke-miterlimit="10"/>
<path opacity="0.15" d="M1618.61 1242.14C1591.9 1230.43 1575.73 1224.71 1543.38 1213.27C1483.51 1192.08 1467.36 1190.57 1452.01 1191.89C1442.06 1192.75 1406.8 1195.75 1380.01 1222.91C1376.93 1226.03 1351.02 1253.02 1348.84 1291.36C1347.72 1310.92 1353.47 1321.43 1345.61 1337.35C1337.78 1353.19 1323.17 1360.79 1318.74 1363.02C1298.51 1373.2 1284.5 1366.94 1251.42 1366.66C1228.31 1366.45 1202.59 1366.23 1177.7 1377.01C1147.61 1390.03 1131.09 1413.76 1119.31 1430.67C1097.6 1461.85 1102.41 1473.31 1080.72 1517.8C1064.78 1550.45 1052.72 1575.21 1027.93 1598.41C1006.95 1618.07 999.198 1615.67 934.755 1661.1C910.711 1678.04 901.134 1685.9 895.72 1699.94C885.527 1726.37 898.24 1753.51 904.588 1767.03C924.619 1809.74 961.656 1830.19 980.007 1840.31C991.152 1846.46 1027.03 1864.98 1077.6 1867.67C1110.98 1869.45 1114.18 1862.39 1189.41 1852.66C1234.25 1846.87 1257.23 1843.99 1285.23 1845.6C1305.06 1846.74 1340.08 1849.06 1381.06 1865.91C1408.41 1877.14 1441.8 1890.89 1465.34 1924.17C1477.35 1941.15 1482.22 1958.61 1491.96 1993.55C1509.38 2056.05 1500.53 2064.41 1512.24 2086.33C1544.05 2145.88 1644.04 2148.98 1656.69 2149.37C1731.16 2151.68 1786.18 2116.38 1808.75 2101.47C1871.43 2060.05 1863.46 2031.63 1945.6 1960.26C2003.49 1909.96 2012.53 1919.68 2044.43 1884.61C2118.62 1803.14 2120.43 1695.15 2120.47 1685.42C2120.84 1553.18 2027.35 1464.45 1978.55 1418.13C1901.6 1345.09 1814.74 1310.25 1793.55 1302.13C1736.35 1280.21 1699.57 1277.63 1618.61 1242.17V1242.14Z" stroke="#007C79" stroke-width="2" stroke-miterlimit="10"/>
<path opacity="0.15" d="M1195.7 1448.63C1172.12 1458.27 1157.36 1475.51 1151.21 1482.68C1139.06 1496.85 1135.64 1506.97 1122.05 1534.55C1105.63 1567.88 1097.41 1584.54 1088.08 1597.73C1080.41 1608.56 1077.96 1609.65 1013.87 1668.9C990.2 1690.78 978.271 1702.1 973.641 1720.5C968.34 1741.51 974.538 1759.38 976.33 1764.1C984.525 1785.79 1000.79 1797.11 1011.2 1804.13C1019.75 1809.9 1041.91 1823.2 1081.84 1825.49C1124.07 1827.88 1140.09 1815.31 1184.67 1807.69C1226.13 1800.6 1257.9 1803.68 1290.18 1806.8C1337.5 1811.39 1400.81 1817.5 1460.06 1860.18C1482.87 1876.6 1510.18 1896.28 1522.66 1931.36C1531.56 1956.44 1524.8 1966.64 1535.18 2001.65C1541.23 2022.08 1549.84 2051.15 1572.74 2072.83C1611.09 2109.12 1667.41 2103.79 1684.51 2102.19C1698.88 2100.84 1781.38 2093.05 1809.57 2029.51C1811.38 2025.42 1828.14 1985.97 1810.8 1944.35C1798.09 1913.85 1773.5 1897.65 1763.12 1890.81C1752.7 1883.96 1747.87 1882.85 1711.76 1867.71C1692.93 1859.81 1674.26 1851.47 1655.52 1843.37C1577.93 1809.83 1512.46 1750.91 1512.46 1750.91C1489.63 1730.37 1462.04 1705.53 1436.65 1664.54C1410.25 1621.91 1394.93 1575.79 1394.05 1573.13C1380.35 1531.25 1383.91 1519.42 1368.36 1499.34C1349.64 1475.17 1324.27 1466.14 1298.28 1456.91C1268.51 1446.34 1232.64 1433.6 1195.76 1448.68L1195.7 1448.63Z" stroke="#007C79" stroke-width="2" stroke-miterlimit="10"/>
<path opacity="0.15" d="M1641.35 1433.53C1583.85 1443.2 1577.91 1442.33 1552.28 1449.33C1515.37 1459.42 1496.91 1464.45 1481.17 1480.24C1455.52 1505.97 1453.15 1540.65 1452.18 1555.12C1449.46 1595.18 1464.73 1625.29 1472.21 1639.61C1478.54 1651.72 1496.39 1682.65 1572.33 1735.79C1583.96 1743.93 1608.38 1760.59 1675.19 1797.63C1758.45 1843.76 1800.77 1866.98 1835.33 1874.02C1874.53 1882.01 1934.18 1894.16 1979.21 1862.65C2049.23 1813.67 2036.72 1692.14 2020.31 1633.17C1995.71 1544.79 1933.79 1494.58 1910.69 1476.38C1888.68 1459.03 1852.15 1430.91 1798.8 1421.84C1771.91 1417.27 1747.16 1418.65 1730.28 1419.58C1704.71 1420.99 1699.48 1423.78 1641.39 1433.55L1641.35 1433.53Z" stroke="#007C79" stroke-width="2" stroke-miterlimit="10"/>
<path opacity="0.15" d="M1501.28 1552.4C1494.56 1573.08 1498.7 1591.28 1501.28 1602.52C1509.1 1636.77 1530.38 1658.32 1542.69 1670.45C1554.91 1682.52 1565.98 1690.08 1606.48 1712.76C1646.37 1735.1 1676.89 1750.87 1689.31 1757.3C1782.65 1805.65 1796.54 1815.14 1830.33 1821.88C1860.72 1827.94 1886.55 1833.1 1906.44 1818.54C1929.08 1801.97 1929.87 1770.17 1931.06 1722.77C1931.96 1686.92 1932.63 1637.49 1906.44 1581.34C1893.28 1553.13 1879.54 1523.67 1847.11 1502.27C1815.69 1481.52 1780.61 1477.53 1763.16 1475.54C1753.02 1474.39 1735.88 1474.41 1701.61 1474.43C1669.03 1474.45 1652.74 1474.47 1641.16 1475.54C1613.21 1478.14 1586.82 1480.6 1558.33 1495.58C1541.3 1504.54 1511.73 1520.1 1501.24 1552.39L1501.28 1552.4Z" stroke="#007C79" stroke-width="2" stroke-miterlimit="10"/>
<path opacity="0.15" d="M1602.01 1518.99C1587.15 1523.71 1573.34 1528.26 1560.61 1541.26C1555.57 1546.42 1540.69 1563.1 1539.34 1586.92C1537.91 1612.53 1552.93 1631.55 1562.85 1643.72C1586.84 1673.16 1606.08 1674.38 1675.17 1712.76C1701.05 1727.14 1714.08 1735.7 1749.23 1754.01C1789.87 1775.17 1808.24 1782.34 1829.22 1777.36C1832.87 1776.49 1851.5 1772.07 1863.93 1756.2C1884.17 1730.39 1873.02 1693.33 1856.09 1637.05C1842.11 1590.54 1834.66 1566.91 1812.44 1547.97C1790.86 1529.56 1765.21 1522.59 1751.99 1519.01C1734.13 1514.16 1720.69 1513.55 1693.79 1512.32C1655.42 1510.57 1631.34 1509.7 1602.01 1519.01V1518.99Z" stroke="#007C79" stroke-width="2" stroke-miterlimit="10"/>
<path opacity="0.15" d="M1631.1 1580.53C1626.41 1583.29 1617.9 1588.35 1616.44 1596.98C1615.83 1600.62 1616.35 1605.68 1622.12 1613.9C1626.73 1620.5 1635.09 1629.69 1675.17 1647.28C1691.4 1654.4 1697.88 1656.35 1706.24 1655.75C1710.92 1655.42 1722.93 1654.55 1729.39 1645.87C1738.29 1633.91 1730.12 1615.93 1727.5 1610.13C1720.35 1594.38 1707.71 1586.51 1702.45 1583.33C1685.33 1572.99 1668.7 1573.23 1659.92 1573.45C1652.55 1573.65 1641.96 1574.06 1631.1 1580.51V1580.53Z" stroke="#007C79" stroke-width="2" stroke-miterlimit="10"/>
<path opacity="0.15" d="M1620.63 1925.18C1618.05 1925.86 1611.93 1927.57 1607.71 1932.98C1604.7 1936.84 1604.16 1940.65 1603.56 1952.7C1602.22 1979.23 1603.6 1984.04 1604.48 1986.66C1606.42 1992.42 1608.49 1998.55 1614.61 2002.26C1622.83 2007.22 1632.26 2004.19 1633.97 2003.64C1640.97 2001.39 1644.76 1996.86 1651.95 1988.03C1660.05 1978.1 1664.1 1973.12 1665.32 1965.56C1667.52 1951.96 1659.72 1941.17 1658.39 1939.41C1649.51 1927.5 1633.56 1921.74 1620.59 1925.18H1620.63Z" stroke="#007C79" stroke-width="2" stroke-miterlimit="10"/>
<path opacity="0.15" d="M1363.86 1902.81C1345.23 1894.86 1318.67 1883.83 1283.63 1883.46C1260.98 1883.22 1256.76 1887.66 1208.24 1896.76C1180.02 1902.05 1152.2 1907.29 1123.14 1908.85C1069.41 1911.75 1027.39 1901.31 1014.94 1897.97C966.958 1885.11 935.689 1864.72 895.795 1838.69C869.958 1821.83 834.451 1798.68 797.32 1758.86C768.123 1727.54 767.731 1717.89 737.75 1691.12C707.227 1663.87 677.899 1645.5 664.794 1637.88C656.468 1633.04 648.012 1628.11 636.251 1622.71C598.522 1605.3 556.967 1586.14 526.183 1604.02C499.748 1619.38 494.988 1654.1 494.577 1657.26C491.534 1680.4 502.418 1687.76 506.73 1716.53C511.789 1750.2 499.3 1756.2 497.004 1796.36C495.791 1817.69 492.935 1867.45 522.542 1904.02C534.863 1919.25 552.636 1929.1 588.198 1948.79C610.992 1961.42 630.706 1969.76 644.129 1975.4C677.059 1989.24 686.337 1990.23 708.571 1999.61C741.073 2013.31 757.874 2026.71 781.527 2041.94C781.527 2041.94 836.523 2077.41 904.961 2103.1C957.008 2122.64 1006.89 2122.61 1106.69 2122.53C1215.38 2122.46 1181.06 2109.16 1313.83 2104.18C1349.54 2102.84 1385.43 2102.55 1414.7 2077.21C1421.88 2070.99 1447.33 2047.1 1449.4 2009.23C1451.19 1976.33 1434.24 1952.87 1428.79 1945.55C1412.34 1923.49 1391.96 1914.79 1363.88 1902.81H1363.86Z" stroke="#007C79" stroke-width="2" stroke-miterlimit="10"/>
<path opacity="0.15" d="M1400.1 1985.1C1396.03 1971.93 1388.21 1963.74 1381.78 1957.14C1376.45 1951.68 1361.01 1937.16 1332.93 1929.19C1302.89 1920.66 1278.62 1925.4 1248.66 1930.4C1196.32 1939.15 1166.04 1944.22 1136.3 1946.2C1092.32 1949.14 1055.67 1943.7 982.397 1932.83C938.508 1926.33 924.339 1922.04 910.337 1915.82C880.114 1902.39 877.687 1891.93 839.491 1869.64C819.274 1857.83 799.131 1849.62 758.882 1833.18C689.25 1804.76 687.551 1810 675.827 1797.94C653.126 1774.59 626.244 1720.76 624.135 1716.53C622.492 1713.22 617.414 1702.8 606.213 1695.87C602.965 1693.87 589.673 1685.64 576.904 1691.01C566.301 1695.47 562.362 1706.65 561.017 1710.46C555.753 1725.44 560.887 1737.24 563.463 1750.56C570.744 1788.3 548.902 1794.77 556.126 1825.9C562.119 1851.68 582.934 1872.35 603.768 1881.81C615.678 1887.21 625.89 1888.16 638.677 1889.37C668.098 1892.11 682.286 1885.91 701.235 1884.52C735.117 1882.05 761.328 1896.68 796.48 1916.34C815.465 1926.94 842.852 1942.25 866.691 1972.36C884.239 1994.52 883.567 2004.12 909.087 2037.37C926.915 2060.59 935.819 2072.19 950.101 2079.55C972.951 2091.34 991.171 2084.99 1031.44 2080.92C1077.34 2076.3 1064.03 2083.53 1156.57 2080.92C1232.89 2078.77 1222.19 2074.4 1259.45 2076.08C1294.14 2077.64 1311.69 2081.78 1339.39 2073.31C1354.51 2068.68 1378.26 2061.05 1392.22 2038.04C1394.7 2033.93 1408.07 2010.94 1400.08 1985.06L1400.1 1985.1Z" stroke="#007C79" stroke-width="2" stroke-miterlimit="10"/>
<path opacity="0.15" d="M757.669 1940.15C749.212 1932.24 738.011 1933.59 730.152 1934.56C723.282 1935.39 709.206 1937.1 705.771 1946.37C702.037 1956.46 713.63 1967.9 716.393 1970.63C719.193 1973.4 732.224 1986.27 747.663 1981.83C748.876 1981.48 760.544 1977.91 764.539 1966.28C767.918 1956.48 764.053 1946.13 757.669 1940.15Z" stroke="#007C79" stroke-width="2" stroke-miterlimit="10"/>
<path opacity="0.15" d="M1304.31 1986.7C1299.87 1983.31 1287.01 1974.94 1237.16 1982.01C1202.85 1986.88 1201.13 1991.95 1178.26 1993.51C1154.46 1995.13 1153.66 1989.82 1113.49 1985.53C1054.23 1979.21 1056.04 1990.78 1020.42 1982.01C1004.13 1978 990.237 1972.24 979.205 1979.67C968.153 1987.1 967.481 2002.63 967.425 2004.29C966.865 2023.45 983.368 2036.29 987.456 2039.45C996.099 2046.17 1009.75 2052.77 1044 2052.34C1071.41 2052 1085.67 2047.51 1111.15 2042.96C1173.17 2031.89 1204.19 2026.35 1239.55 2035.92C1259.69 2041.36 1274.95 2049.87 1293.73 2042.96C1295.71 2042.23 1317.66 2033.8 1319.64 2016.01C1321.41 2000.11 1305.97 1987.96 1304.33 1986.71L1304.31 1986.7Z" stroke="#007C79" stroke-width="2" stroke-miterlimit="10"/>
</svg>
