<svg width="425" height="316" viewBox="0 0 425 316" fill="none" xmlns="http://www.w3.org/2000/svg">
<path d="M114.086 117.015C61.2902 137.985 27.6368 162.502 17.4096 172.14C2.12666 180.775 -2.46594 191.671 6.69997 190.643L30.4348 209.532C30.2419 215.315 32.461 226.879 42.8812 226.879C53.3013 226.879 132.514 254.892 170.818 268.898C178.826 272.881 197.505 280.848 208.157 280.848C218.809 280.848 212.595 272.881 208.157 268.898H313.806C330.015 283.932 365.733 314 378.932 314C392.131 314 393.308 298.58 392.247 290.871V262.344H425V96.1981H402.088C407.414 85.7128 404.307 81.5495 402.088 80.7785C399.097 77.0521 391.263 67.2093 383.853 57.6491C376.443 48.089 377.485 39.0171 378.932 35.6762C382.791 26.1674 389.179 6.2247 383.853 2.52399C378.527 -1.17671 358.092 15.6307 348.54 24.4969C332.041 41.073 296.207 75.5358 284.861 80.7785C273.515 86.0211 245.013 87.3318 232.181 87.3318C214.814 88.4883 166.881 96.0439 114.086 117.015Z" fill="#008481" stroke="#008481" stroke-width="4"/>
</svg>
