<svg width="36" height="29" viewBox="0 0 36 29" fill="none" xmlns="http://www.w3.org/2000/svg">
<path d="M20.2057 0.939453C22.1861 0.943651 23.1912 0.952047 24.0591 0.971638L24.4006 0.981433C24.7949 0.992628 25.1839 1.00662 25.6539 1.02341C27.5269 1.09338 28.8049 1.32847 29.9262 1.6741C31.088 2.02953 32.0667 2.5109 33.0454 3.28753C33.9409 3.98682 34.6336 4.83305 35.0751 5.76714C35.5099 6.65851 35.8056 7.67442 35.8936 9.16471C35.9147 9.53693 35.9323 9.84618 35.9464 10.161L35.957 10.4325C35.9834 11.121 35.994 11.92 35.9975 13.4942L35.9992 14.5381V16.3713C36.0035 17.3919 35.99 18.4126 35.9587 19.433L35.9482 19.7045C35.9341 20.0193 35.9165 20.3286 35.8954 20.7008C35.8074 22.1911 35.5081 23.2056 35.0751 24.0983C34.6336 25.0324 33.9409 25.8787 33.0454 26.578C32.1658 27.2898 31.1012 27.8404 29.9262 28.1914C28.8049 28.537 27.5269 28.7721 25.6539 28.8421L24.4006 28.8841L24.0591 28.8924C23.1912 28.912 22.1861 28.9218 20.2057 28.9246L18.8926 28.926H16.5883C15.3037 28.9296 14.0192 28.9189 12.735 28.8938L12.3935 28.8855C11.9756 28.8729 11.5578 28.8584 11.1402 28.8421C9.26718 28.7721 7.9892 28.537 6.86612 28.1914C5.6917 27.8402 4.62779 27.2896 3.74861 26.578C2.85252 25.8788 2.15925 25.0326 1.71722 24.0983C1.28242 23.207 0.986688 22.1911 0.898673 20.7008L0.845864 19.7045L0.837062 19.433C0.804613 18.4126 0.789942 17.3919 0.793054 16.3713V13.4942C0.788182 12.4736 0.801092 11.4529 0.831781 10.4325L0.844104 10.161C0.858186 9.84618 0.875789 9.53693 0.896913 9.16471C0.984928 7.67442 1.28066 6.65991 1.71546 5.76714C2.15852 4.83266 2.85301 3.9864 3.75037 3.28753C4.62904 2.57604 5.69233 2.02544 6.86612 1.6741C7.9892 1.32847 9.26542 1.09338 11.1402 1.02341C11.6084 1.00662 11.9992 0.992628 12.3935 0.981433L12.735 0.973037C14.0186 0.948175 15.3026 0.937446 16.5865 0.940852L20.2057 0.939453ZM18.3961 7.9361C16.0618 7.9361 13.8231 8.67324 12.1725 9.98537C10.5219 11.2975 9.5946 13.0771 9.5946 14.9327C9.5946 16.7884 10.5219 18.568 12.1725 19.8801C13.8231 21.1922 16.0618 21.9294 18.3961 21.9294C20.7305 21.9294 22.9692 21.1922 24.6198 19.8801C26.2704 18.568 27.1977 16.7884 27.1977 14.9327C27.1977 13.0771 26.2704 11.2975 24.6198 9.98537C22.9692 8.67324 20.7305 7.9361 18.3961 7.9361ZM18.3961 10.7348C19.0896 10.7347 19.7764 10.8432 20.4171 11.054C21.0579 11.2649 21.6401 11.5741 22.1306 11.9638C22.621 12.3536 23.0101 12.8163 23.2756 13.3256C23.5411 13.8349 23.6778 14.3808 23.678 14.932C23.6781 15.4833 23.5416 16.0292 23.2763 16.5386C23.011 17.048 22.6221 17.5108 22.1318 17.9007C21.6415 18.2906 21.0594 18.5999 20.4188 18.8109C19.7781 19.022 19.0914 19.1306 18.3979 19.1307C16.9973 19.1307 15.6541 18.6884 14.6637 17.9012C13.6734 17.1139 13.117 16.0461 13.117 14.9327C13.117 13.8194 13.6734 12.7516 14.6637 11.9643C15.6541 11.177 16.9973 10.7348 18.3979 10.7348M27.6395 5.8371C27.0559 5.8371 26.4963 6.02139 26.0836 6.34942C25.671 6.67745 25.4391 7.12236 25.4391 7.58627C25.4391 8.05017 25.671 8.49508 26.0836 8.82311C26.4963 9.15114 27.0559 9.33543 27.6395 9.33543C28.2231 9.33543 28.7828 9.15114 29.1954 8.82311C29.6081 8.49508 29.8399 8.05017 29.8399 7.58627C29.8399 7.12236 29.6081 6.67745 29.1954 6.34942C28.7828 6.02139 28.2231 5.8371 27.6395 5.8371Z" fill="white"/>
</svg>
