<svg width="34" height="34" viewBox="0 0 34 34" fill="none" xmlns="http://www.w3.org/2000/svg">
<path d="M7.05858 3.68454C7.05811 4.66125 6.69006 5.59776 6.03538 6.28806C5.38071 6.97835 4.49303 7.36588 3.56764 7.36539C2.64225 7.3649 1.75495 6.97644 1.10093 6.28545C0.446904 5.59447 0.0797379 4.65757 0.0802006 3.68085C0.0806633 2.70414 0.448717 1.76763 1.10339 1.07733C1.75807 0.387041 2.64574 -0.000487895 3.57113 4.61003e-07C4.49652 0.000488817 5.38383 0.388954 6.03785 1.07994C6.69187 1.77092 7.05904 2.70783 7.05858 3.68454ZM7.16325 10.0924H0.184876V33.1461H7.16325V10.0924ZM18.1891 10.0924H11.2456V33.1461H18.1193V21.0484C18.1193 14.3091 26.441 13.6831 26.441 21.0484V33.1461H33.3322V18.5442C33.3322 7.1831 21.0153 7.60661 18.1193 13.1859L18.1891 10.0924Z" fill="white"/>
</svg>
