<svg width="34" height="30" viewBox="0 0 34 30" fill="none" xmlns="http://www.w3.org/2000/svg">
<path d="M33.0401 4.0202C31.8402 4.60513 30.5468 4.98951 29.2067 5.17335C30.578 4.2876 31.6377 2.88376 32.1363 1.19582C30.8429 2.03143 29.4093 2.61636 27.8977 2.95061C26.6666 1.51335 24.9369 0.677734 22.9734 0.677734C19.3114 0.677734 16.3194 3.8865 16.3194 7.84732C16.3194 8.41554 16.3818 8.96704 16.4908 9.48513C10.9432 9.18431 6.00337 6.3265 2.71533 1.99801C2.13875 3.05088 1.8115 4.2876 1.8115 5.59116C1.8115 8.08129 2.98024 10.2873 4.78789 11.5407C3.68148 11.5407 2.65299 11.2065 1.74917 10.7051V10.7553C1.74917 14.2314 4.05548 17.1394 7.10978 17.7911C6.12934 18.0802 5.09961 18.1202 4.10223 17.9081C4.52548 19.3328 5.35439 20.5794 6.47245 21.4728C7.59051 22.3661 8.94149 22.8612 10.3355 22.8884C7.97257 24.8947 5.04347 25.9792 2.02967 25.9635C1.49984 25.9635 0.970013 25.93 0.440186 25.8632C3.40099 27.9021 6.92278 29.0887 10.6939 29.0887C22.9734 29.0887 29.7209 18.1588 29.7209 8.68293C29.7209 8.3654 29.7209 8.06458 29.7054 7.74704C31.0143 6.74431 32.1363 5.47417 33.0401 4.0202Z" fill="white"/>
</svg>
