<svg width="43" height="30" viewBox="0 0 43 30" fill="none" xmlns="http://www.w3.org/2000/svg">
<path d="M17.3241 20.9713L28.3217 14.8832L17.3241 8.79515V20.9713ZM41.8197 5.08143C42.0952 6.03523 42.2859 7.31372 42.413 8.9372C42.5614 10.5607 42.6249 11.9609 42.6249 13.1785L42.7521 14.8832C42.7521 19.3275 42.413 22.5947 41.8197 24.685C41.29 26.5114 40.061 27.6884 38.1539 28.1958C37.1579 28.4596 35.3356 28.6422 32.5385 28.764C29.7838 28.906 27.2622 28.9669 24.9313 28.9669L21.5621 29.0887C12.6835 29.0887 7.15292 28.764 4.97036 28.1958C3.06326 27.6884 1.83424 26.5114 1.30449 24.685C1.02902 23.7312 0.838311 22.4527 0.711171 20.8292C0.562841 19.2057 0.499271 17.8055 0.499271 16.5879L0.372131 14.8832C0.372131 10.4389 0.711171 7.17166 1.30449 5.08143C1.83424 3.25501 3.06326 2.07799 4.97036 1.57065C5.96628 1.30683 7.78862 1.12419 10.5857 1.00243C13.3404 0.860376 15.862 0.799495 18.1929 0.799495L21.5621 0.677734C30.4407 0.677734 35.9713 1.00243 38.1539 1.57065C40.061 2.07799 41.29 3.25501 41.8197 5.08143Z" fill="white"/>
</svg>
